<?xml version="1.0" encoding="utf-8" ?><svg xmlns="http://www.w3.org/2000/svg" xmlns:xlink="http://www.w3.org/1999/xlink" width="1774" height="887" viewBox="0 0 1774 887"><defs><linearGradient id="gradient_0" gradientUnits="userSpaceOnUse" x1="855.97748" y1="38.566467" x2="903.44562" y2="929.72144"><stop offset="0" stop-color="#FFE5AA"/><stop offset="1" stop-color="#FEF6DB"/></linearGradient></defs><path fill="url(#gradient_0)" d="M0 0L1774 0L1774 32.0454L1774 33.7256L1774 54.7445L1774 58.1198L1774 62.1447L1774 66.3077L1774 73.2452L1774 77.6695L1774 82.6267L1774 131.518L1774 249.317L1774 341.458L1774 887L1525.05 887L1518.95 887L1515.11 887L1503 887L1500.22 887L1495.85 887L0 887L0 822.3L0 817.725L0 810.65L0 805.118L0 800.692L0 796.496L0 778.152L0 772.453L0 762.533L0 757.588L0 752.301L0 745.603L0 607.77L0 604.993L0 341.242L0 269.232L0 83.536L0 77.8016L0 72.1202L0 66.3796L0 62.4698L0 34.8291L0 32.9056L0 0Z"/><path fill="#FED87D" d="M0 0L1774 0L1774 32.0454L1774 33.7256L1774 54.7445L1774 58.1198L1774 62.1447L1774 66.3077L1774 73.2452C1764.45 70.906 1733.11 71.9193 1721.64 71.9291L1641.11 71.6962L1290.46 71.9213L0 72.1202L0 66.3796L0 62.4698L0 34.8291L0 32.9056L0 0Z"/><path fill="#FEE09B" d="M0 62.4698C20.7049 62.7287 39.4197 59.8485 58.1605 59.5303C87.9393 59.0246 119.159 59.665 149.241 59.5323L146.577 60.3341L147.084 59.9533L146.97 61.2436C150.404 64.5222 150.099 64.0593 154.801 64.0686C165.163 64.0892 175.111 62.062 185.374 61.0485C193.258 60.2699 201.502 59.712 209.441 59.6306C267.38 59.0369 325.33 59.5823 383.27 59.7857C392.95 59.8258 402.669 60.9937 412.208 61.0819C435.403 61.2963 458.326 61.2057 481.516 60.9041C497.339 60.6983 513.968 61.8798 529.851 61.8652C552.061 61.8447 574.315 61.8938 596.526 61.6403C604.686 61.5472 613.061 60.2703 621.238 60.0845C653.064 59.677 684.893 59.5209 716.722 59.6161C730.652 59.5881 746.225 58.9091 759.701 59.0297L1180.14 61.1703L1548.92 62.0597C1596.85 61.9438 1644.73 61.9888 1692.6 59.9278C1702.21 59.5139 1712.97 61.8545 1722.74 61.5123C1739.58 61.7985 1757.27 61.1871 1774 62.1447L1774 66.3077L1774 73.2452C1764.45 70.906 1733.11 71.9193 1721.64 71.9291L1641.11 71.6962L1290.46 71.9213L0 72.1202L0 66.3796L0 62.4698Z"/><path fill="#FED87D" d="M0 66.3796C41.8884 65.9016 84.0907 66.5568 126.034 65.7744C134.507 65.6163 143.363 67.2099 151.934 67.2203L415.592 66.393L1240.69 65.8576L1602.19 66.2933L1729.27 66.4924C1744.14 66.4158 1759.18 66.8262 1774 66.3077L1774 73.2452C1764.45 70.906 1733.11 71.9193 1721.64 71.9291L1641.11 71.6962L1290.46 71.9213L0 72.1202L0 66.3796Z"/><path fill="#FEE09B" d="M1774 58.1198C1768.72 58.4614 1724 59.1528 1719.9 58.5182L1719.63 57.3007C1720.47 56.3824 1722.26 54.3161 1723.5 54.2969C1740.3 54.0376 1757.19 54.5152 1774 54.7445L1774 58.1198Z"/><path fill="#FEE09B" d="M1531.42 47.0685C1536.27 46.7767 1544.76 45.5249 1548.22 48.3514C1546.05 48.6078 1543.88 48.8255 1541.71 49.0047C1537.73 49.3189 1534.5 49.6923 1531.42 47.0685Z"/><path fill="#FEEEC3" d="M0 341.242C34.5351 341.081 69.9977 340.226 104.523 341.214C108.758 341.335 115.73 341.012 119.684 341.575L123.249 341.194L127.382 341.365L131.724 341.152L135.077 341.268L138.992 341.128L143.594 341.16L146.298 341.339L151.712 341.219L155.008 341.142C156.895 341.126 158.211 340.985 160.033 341.56L162.893 340.983L167.002 341.106L170.403 341.187C169.456 349.218 170.36 368.643 170.515 377.856C170.759 392.317 169.097 411.124 170.88 424.828C190.848 388.718 251.459 402.535 258.136 438.353C265.27 476.624 243.655 494.738 213.331 502.135C209.618 503.041 214.222 524.287 211.342 528.651C203.268 518.993 192.83 514.457 180.295 513.409C164.86 512.117 153.884 513.077 140.921 523.41C132.551 530.081 126.222 541.214 124.59 552.115C123.865 556.955 127.391 570.808 128.479 576.065C128.125 576.45 127.771 576.835 127.417 577.22C125.637 573.797 125.81 570.377 123.437 568.161C118.725 567.562 117.267 571.699 115.035 568.412C99.9549 546.2 85.1274 547.354 71.0996 568.711C52.3711 548.789 32.5025 571.143 35.2751 594.653C11.8883 595.349 20.1137 590.022 0 604.993L0 341.242Z"/><path fill="#FEE6AD" d="M151.712 341.219L155.008 341.142C155.421 351.738 155.964 439.372 153.847 444.1L152.849 443.843C149.63 435.751 150.901 354.353 151.712 341.219Z"/><path fill="#FEE09B" d="M127.382 341.365L131.724 341.152C131.309 356.552 132.599 437.459 129.852 445.365L128.892 445.227C126.814 440.684 127.113 351.157 127.382 341.365Z"/><path fill="#FEE09B" d="M119.684 341.575L123.249 341.194C123.463 348.486 123.338 443.788 122.947 444.671L121.422 445.19L120.135 444.312C119.099 439.635 119.958 430.161 119.959 424.625C119.962 397.497 118.529 368.584 119.684 341.575Z"/><path fill="#FEE09B" d="M135.077 341.268L138.992 341.128C138.358 371.849 141.832 414.341 137.676 443.774L137.12 444.043C135.64 436.693 135.607 414.291 135.489 405.646C135.036 384.19 134.899 362.728 135.077 341.268Z"/><path fill="#FEE09B" d="M160.033 341.56L162.893 340.983C162.707 361.046 164.967 434.842 160.3 448.861L159.306 388.223C159.108 378.199 158.309 350.898 160.033 341.56Z"/><path fill="#FEE6AD" d="M167.002 341.106L170.403 341.187C169.456 349.218 170.36 368.643 170.515 377.856C170.759 392.317 169.097 411.124 170.88 424.828L169.138 427.068L168.049 426.93C166.304 421.352 167.936 409.125 167.468 402.771C165.948 382.131 166.513 361.782 167.002 341.106Z"/><path fill="#FEE6AD" d="M146.298 341.339C147.001 345.023 146.893 372.169 146.023 375.689L144.575 376.481C142.616 373.623 143.528 346.14 143.594 341.16L146.298 341.339Z"/><path fill="#FEE09B" d="M144.035 385.902L145.188 386.828C147.653 391.708 146.613 437.978 146.322 445.8L144.426 444.769C142.85 439.895 143.607 393.142 144.035 385.902Z"/><path fill="#FEE09B" d="M0 72.1202L1290.46 71.9213L1641.11 71.6962L1721.64 71.9291C1733.11 71.9193 1764.45 70.906 1774 73.2452L1774 77.6695L1774 82.6267L1774 131.518L1774 249.317C1772.99 249.014 1770.7 247.947 1769.62 247.484L1767.26 245.69C1757.5 244.789 1743.16 243.296 1734.13 247.976C1730.9 243.802 1733.02 226.435 1733.29 220.57C1733.68 211.655 1733.57 202.725 1732.96 193.822C1732.57 197.099 1732.4 200.099 1732.45 203.393C1732.68 218.133 1731.51 232.661 1731.56 247.41C1728.73 248.901 1726.81 250.518 1723.77 251.723C1722.3 250.546 1722.35 248.023 1721.91 245.672L1721.25 245.464C1720.05 249.037 1720.04 249.96 1719.89 253.765L1716.8 255.596C1713.51 250.972 1717.87 202.482 1715.59 194.19C1714.29 210.861 1715.55 226.225 1713.75 243.447C1712.56 240.15 1713.34 162.07 1713.48 153.609C1713.03 141.196 1714.71 93.1527 1712.93 84.9813L1709.93 84.7542L1709.32 87.8858L1708.31 87.8041C1707.46 86.629 1707.78 86.3542 1707.75 84.5444C1691.44 83.7296 1668.06 84.4424 1651.3 84.4452L1540.34 84.4617L1118.96 84.4936C1112.6 84.4965 1033.65 84.1057 1032.73 84.4566L1031.48 88.7398C1031.35 86.8013 1031.12 86.243 1030.54 84.3667C1028.37 82.598 1029.42 83.0778 1026.09 82.969C1024.4 83.8699 1024.31 83.8325 1023.89 85.8212C1022.49 92.4853 1023.9 104.127 1023.84 111.478C1023.77 120.985 1022.78 214.527 1022.13 215.7L1020.03 216.034C1018.06 212.872 1019.54 204.079 1019.45 199.58L1017.85 115.508C1017.66 106.381 1018.85 90.9111 1015.95 82.9796L1013.54 82.6927C1010.64 86.7816 1011.03 96.8121 1011.16 102.081C1012.06 138.882 1009.55 175.908 1010.34 212.594C1010.37 214.338 1009.63 214.863 1008.35 215.717L1006.84 215.1C1005.78 180.129 1006.75 144.813 1006.53 109.817C1006.48 101.808 1007.11 92.2552 1006.04 84.4006C1004.07 82.9061 1004.74 83.3664 1001.75 83.3189C1001.28 83.6131 1000.71 83.9649 1000.05 84.3743C999.553 89.0694 999.727 97.1573 999.678 101.502C999.365 129.708 1000.09 157.949 998.306 186.12C998.248 189.341 997.818 192.803 997.943 196.005C998.209 202.847 998.244 208.159 995.151 214.566C993.32 194.58 994.38 177.416 994.639 157.373C994.827 142.854 993.911 127.809 994.412 113.452L994.206 112.593C991.978 103.052 995.247 89.4838 991.948 84.2743L990.457 83.6656C984.733 86.8069 987.209 197.175 985.103 214.973C983.092 215.802 984.065 215.806 982.093 215.035C980.702 209.955 981.487 193.44 981.513 187.18C981.651 153.729 978.867 120.058 980.035 86.7055C980.091 85.1136 979.516 84.7216 978.376 83.9743L976.785 84.132C973.523 88.4584 974.833 100.29 974.524 106.426C973.113 134.461 973.868 162.666 973.416 190.735C973.343 195.465 973.536 212.42 972.67 215.677C971.818 215.307 970.904 214.762 970.079 214.308C968.822 209.837 969.606 194.064 969.51 188.413L967.622 114.88C967.439 107.209 968.187 90.4317 966.576 84.0871L964.066 82.7888C958.373 83.6009 962.053 88.0581 959.853 90.4746C959.828 87.8626 959.793 86.3495 959.458 83.7287C943.304 83.4456 928.155 84.327 912.122 84.44L820.381 84.4353L495.031 84.4469C495.067 87.1107 495.227 100.819 494.02 102.195C492.442 95.9302 492.805 89.6631 492.855 83.2008C497.74 80.0145 513.03 81.9327 520.766 81.1157L520.753 80.3724C515.629 79.3267 502.26 79.7316 496.178 79.7128L449.017 79.6633L301.951 79.6957L179.102 79.6467C170.778 79.6483 132.381 79.0364 125.826 80.0241L125.336 81.2521C134.186 81.8955 148.925 81.4429 158.405 81.444L221.161 81.4452L417.514 81.4238C417.523 95.3102 417.702 109.647 417.29 123.489C416.366 116.991 416.587 91.5206 416.399 83.3247C382.924 82.4067 345.471 83.5667 311.602 83.3219L0 83.536L0 77.8016L0 72.1202Z"/><path fill="#FEE6AD" d="M1713.48 153.609C1714.73 143.471 1714.52 88.3488 1716.19 84.9626C1719.05 84.4545 1718.28 84.1766 1720.63 85.1183C1720.39 94.3341 1721.33 159.368 1722.48 162.115C1724.93 157.715 1720.06 88.3965 1723 84.4908L1725.29 84.5957C1726.58 107.832 1723.91 138.242 1725.7 160.226C1727.97 156.236 1725.08 95.4416 1727.22 86.9017C1727.93 84.0329 1728.55 83.9253 1731.05 83.3216C1731.48 83.6677 1731.92 84.0137 1732.36 84.3598C1734.33 99.6649 1732.65 124.097 1734.63 138.731C1737.19 133.801 1732.28 88.0548 1735.33 83.6728C1737.59 85.9717 1736.86 99.0984 1736.9 103.013C1736.76 114.663 1736.05 130.704 1737.4 141.808C1738.97 135.659 1739.65 93.7142 1739.33 84.787C1739.69 84.5561 1740.04 84.3253 1740.39 84.0944C1741.81 84.9322 1743.12 85.2989 1743.15 87.2648C1743.87 134.358 1745.44 181.593 1745.8 228.674C1745.83 232.012 1744.96 241.664 1747.1 243.916L1748.27 243.271C1750.93 223.522 1749.87 88.9574 1753.1 84.4273C1755.9 84.24 1754.8 83.95 1757.22 85.6442C1758.77 88.2009 1756.82 136.623 1759.2 146.435L1759.29 159.24C1757.57 167.489 1759.22 233.702 1760.85 242.707L1761.5 243.132C1762.5 236.246 1762.55 214.983 1762.87 206.352C1764.06 177.117 1764.96 147.872 1765.59 118.621C1765.83 108.597 1764.98 94.7997 1766.32 85.4352C1768.73 84.0885 1767.63 84.3179 1770.52 84.696C1774.09 90.0205 1767.29 125.859 1774 131.518L1774 249.317C1772.99 249.014 1770.7 247.947 1769.62 247.484L1767.26 245.69C1757.5 244.789 1743.16 243.296 1734.13 247.976C1730.9 243.802 1733.02 226.435 1733.29 220.57C1733.68 211.655 1733.57 202.725 1732.96 193.822C1732.57 197.099 1732.4 200.099 1732.45 203.393C1732.68 218.133 1731.51 232.661 1731.56 247.41C1728.73 248.901 1726.81 250.518 1723.77 251.723C1722.3 250.546 1722.35 248.023 1721.91 245.672L1721.25 245.464C1720.05 249.037 1720.04 249.96 1719.89 253.765L1716.8 255.596C1713.51 250.972 1717.87 202.482 1715.59 194.19C1714.29 210.861 1715.55 226.225 1713.75 243.447C1712.56 240.15 1713.34 162.07 1713.48 153.609Z"/><path fill="#FED87D" d="M0 77.8016L491.281 78.4147C642.987 77.1957 794.7 77.06 946.408 78.0076C949.454 78.5269 951.226 78.6894 954.022 80.0483L953.949 80.8633C944.441 83.7962 860.818 82.0757 846.574 82.0532L656.252 82.2626C622.871 82.3491 587.89 81.9347 554.746 82.6229C544.905 82.8273 498.337 81.8042 492.855 83.2008C497.74 80.0145 513.03 81.9327 520.766 81.1157L520.753 80.3724C515.629 79.3267 502.26 79.7316 496.178 79.7128L449.017 79.6633L301.951 79.6957L179.102 79.6467C170.778 79.6483 132.381 79.0364 125.826 80.0241L125.336 81.2521C134.186 81.8955 148.925 81.4429 158.405 81.444L221.161 81.4452L417.514 81.4238C417.523 95.3102 417.702 109.647 417.29 123.489C416.366 116.991 416.587 91.5206 416.399 83.3247C382.924 82.4067 345.471 83.5667 311.602 83.3219L0 83.536L0 77.8016Z"/><path fill="#FEF4D6" d="M71.0996 568.711C85.1274 547.354 99.9549 546.2 115.035 568.412C117.267 571.699 118.725 567.562 123.437 568.161C125.81 570.377 125.637 573.797 127.417 577.22C127.771 576.835 128.125 576.45 128.479 576.065C127.391 570.808 123.865 556.955 124.59 552.115C126.222 541.214 132.551 530.081 140.921 523.41C153.884 513.077 164.86 512.117 180.295 513.409C192.83 514.457 203.268 518.993 211.342 528.651C222.634 543.597 225.807 550.458 224.433 569.81C230.124 568.353 232.65 568.021 238.517 567.746C255.877 576.896 246.806 581.526 252.296 587.96C257.857 580.778 263.044 580.771 270.883 585.641C275.815 588.705 273.772 596.89 277.23 599.944C281.84 599.898 302.282 601.985 303.365 607.184C290.277 608.235 266.369 605.861 252.067 606.085C224.191 606.52 196.74 607.185 168.825 607.27L127.315 607.533C121.851 607.519 107.794 607.104 103.219 607.564C101.916 604.312 98.4558 598.133 96.6993 594.79C89.4619 594.505 81.1838 594.739 73.8628 594.786L67.1584 607.298C46.0096 607.933 21.1373 608.631 0 607.77L0 604.993C20.1137 590.022 11.8883 595.349 35.2751 594.653C32.5025 571.143 52.3711 548.789 71.0996 568.711Z"/><path fill="#FEF4D6" d="M0 269.232C2.8564 265.768 5.48267 262.564 8.8432 259.562C40.9919 230.84 95.6572 246.971 99.8014 292.513C99.9748 294.414 100.116 296.317 100.225 298.223C107.008 294.536 112.387 292.196 120.435 293.643C122.296 294.167 126.79 295.195 128.221 296.038L129.227 296.387C132.087 297.843 133.823 298.589 136.251 300.719L137.282 301.549C139.722 304.157 142.425 306.696 143.854 309.941L145.033 313.472C147.744 320.195 148.423 323.831 149.078 331.218C149.08 331.247 150.875 333.332 151.201 333.625L154.738 334.582C157.01 334.486 157.68 334.301 159.761 335.059L162.677 335.501C164.598 336.474 166.046 337.101 167.742 338.459L169.184 339.061C171.047 339.527 173.733 339.882 174.85 341.252C173.221 341.285 172.027 341.304 170.403 341.187L167.002 341.106L162.893 340.983L160.033 341.56C158.211 340.985 156.895 341.126 155.008 341.142L151.712 341.219L146.298 341.339L143.594 341.16L138.992 341.128L135.077 341.268L131.724 341.152L127.382 341.365L123.249 341.194L119.684 341.575C115.73 341.012 108.758 341.335 104.523 341.214C69.9977 340.226 34.5351 341.081 0 341.242L0 269.232Z"/><path fill="#FEF4D6" d="M1734.13 247.976C1743.16 243.296 1757.5 244.789 1767.26 245.69L1769.62 247.484C1770.7 247.947 1772.99 249.014 1774 249.317L1774 341.458C1735.3 341.608 1697.76 339.396 1659.05 341.147C1630.93 342.419 1601.97 340.622 1573.58 341.981C1577.33 340.966 1589.3 337.983 1590.62 336.145C1596.34 328.14 1599.85 327.059 1609.38 330.926C1611.25 331.684 1612.36 330.906 1614.09 329.846C1614.16 325.839 1613.8 322.278 1613.46 318.306C1623.06 300.627 1637.74 295.144 1652.78 310.363C1671.51 273.205 1690 306.422 1700.92 307.941C1702.77 304.069 1697.51 287.31 1705.29 273.192C1712.02 260.978 1720.46 253.347 1734.15 248.59L1734.13 247.976Z"/><path fill="#FEF4D6" d="M1734.13 247.976C1743.16 243.296 1757.5 244.789 1767.26 245.69L1769.62 247.484C1765.97 247.31 1766.31 246.71 1764.04 248.479L1762.6 251.852L1760.76 252.407C1757.83 250.551 1758.57 248.01 1757.83 247.448C1754.47 244.885 1738.41 248.207 1734.15 248.59L1734.13 247.976Z"/><path fill="#FEEEC3" d="M73.8628 594.786C81.1838 594.739 89.4619 594.505 96.6993 594.79C98.4558 598.133 101.916 604.312 103.219 607.564C104.972 611.568 105.265 612.301 105.494 616.626C107.618 618.616 108.992 617.828 112.796 617.836C114.901 615.205 115.107 614.279 119.129 613.913C123.924 613.477 129.744 613.792 134.599 613.937C137.934 618.194 142.046 625.576 144.517 630.503C141.411 636.681 138.438 642.731 134.903 648.687C128.944 648.079 123.776 647.419 117.855 648.742L116.214 650.647L115.673 652.443C113.91 656.117 110.733 662.268 109.321 665.859L109.431 667.76C106.95 670.016 95.1371 670.237 92.264 668.223L92.1612 666.354L90.6078 666.689L91.8937 666.584L90.7053 667.452L91.03 667.773L92.6717 666.151C91.5919 663.961 90.812 666.047 85.8715 662.919C86.783 664.99 86.8062 664.256 86.4326 666.207C74.6286 648.683 77.6433 649.742 86.8848 632.498L74.3503 632.423C71.2346 627.419 63.8458 617.261 64.4413 612.19C65.2771 610.405 66.1573 608.98 67.1584 607.298L73.8628 594.786Z"/><path fill="#FEE09B" d="M64.4413 612.19C68.2694 618.213 72.0043 624.295 75.6445 630.434L94.1377 630.328C96.2091 627.163 99.9784 620.443 102.612 618.466L102.684 618.575L101.574 619.765C101.877 622.5 97.6498 629.126 96.0525 631.946C98.7701 632.158 104.595 631.954 106.212 633.237L105.694 634.028C99.3065 634.47 94.0221 634.279 87.614 634.082C76.2865 655.646 79.4479 644.483 85.8715 662.919C86.783 664.99 86.8062 664.256 86.4326 666.207C74.6286 648.683 77.6433 649.742 86.8848 632.498L74.3503 632.423C71.2346 627.419 63.8458 617.261 64.4413 612.19Z"/><path fill="#FEE09B" d="M112.796 617.836C114.901 615.205 115.107 614.279 119.129 613.913C123.924 613.477 129.744 613.792 134.599 613.937C137.934 618.194 142.046 625.576 144.517 630.503C141.411 636.681 138.438 642.731 134.903 648.687C128.944 648.079 123.776 647.419 117.855 648.742L116.214 650.647C114.015 644.366 103.289 631.836 110.04 626.19C108.605 632.506 108.423 632.23 111.716 637.834C113.052 640.284 115.051 644.228 116.722 646.248C118.859 646.638 131.415 646.334 134.091 646.29C136.75 642.062 139.907 635.348 142.239 630.701C139.702 625.757 137.123 620.835 134.502 615.936L116.269 615.98C114.642 618.985 114.186 619.688 111.948 622.262L111.414 621.68L112.796 617.836Z"/><path fill="#FEE09B" d="M106.813 665.904C108.685 661.973 111.733 653.697 115.673 652.443C113.91 656.117 110.733 662.268 109.321 665.859C106.58 668.791 99.8735 668.313 96.4553 667.031C98.6203 665.804 104.03 665.994 106.813 665.904Z"/><path fill="#FEF4D6" d="M111.716 637.834C114.942 637.36 115.656 637.099 118.533 638.687C120.549 641.316 120.199 640.112 120.034 643.177C118.765 645.089 118.73 645.352 116.722 646.248C115.051 644.228 113.052 640.284 111.716 637.834Z"/><path fill="#FEF4D6" d="M75.2101 597.018L95.4783 596.913C97.2005 599.904 100.525 603.945 98.8194 606.996L94.7653 607.416L69.6319 607.635C71.3803 604.096 73.3517 600.512 75.2101 597.018Z"/><path fill="#FEEEC3" d="M1503 887C1503.16 881.361 1503.31 828.627 1503.83 827.488L1504.58 827.795C1504.62 834.786 1503.97 881.374 1505.28 884.173L1506.12 883.469C1506.86 870.746 1505.11 844.686 1506.17 834.35C1507.57 820.617 1503.57 747.739 1506.82 741.358C1508.58 745.007 1506.85 763.214 1507.54 767.761C1509.44 780.401 1504.45 881.495 1510.23 885.644C1514.03 858.813 1509.79 827.517 1511.26 800.175C1511.73 791.3 1509.99 781.215 1510.29 772.235C1509.25 752.17 1512.95 723.031 1510.53 704.102L1511.31 703.685C1514.44 708.524 1511.19 739.656 1512 746.542C1512.62 751.868 1512.69 758.674 1512.64 764.122C1515.64 753.323 1511.58 717.104 1514.64 707.507L1515.42 707.75C1516.03 723.069 1512.51 752.386 1517.9 764.348C1516.9 764.312 1516.17 764.264 1515.18 764.154C1515.43 770.265 1515.83 776.37 1516.37 782.464L1517.67 782.421C1520.75 772.539 1516.56 738.622 1518.12 726.119C1518.4 723.913 1518.88 711.6 1519.12 711.306C1520.11 712.961 1519.47 734.092 1519.53 737.552L1520.56 879.93C1520.57 882.238 1520.72 883.206 1522.28 884.344C1524.42 880.619 1520.95 733.347 1522.61 715.06C1526.88 726.641 1523.37 794.533 1523.95 809.841C1524.87 833.711 1523.41 862.877 1525.05 887L1518.95 887L1515.11 887L1503 887Z"/><path fill="#FEF4D6" d="M1515.11 887C1517.14 859.127 1514.58 817.378 1516.02 788.275C1516.45 787.716 1516.82 787.243 1517.12 786.855L1518.83 786.847C1519.84 793.813 1519.67 817.771 1519.51 826.195C1519.16 843.66 1521.01 870.426 1518.95 887L1515.11 887Z"/><path fill="#FEEEC3" d="M0 817.725C21.6015 799.412 42.9852 774.332 64.0047 754.808C72.7356 746.698 82.9831 733.477 92.3258 726.639L94.3385 727.33L95.12 728.959C92.6402 732.9 82.1712 743.118 78.3495 747.039L43.3322 782.878L43.6207 783.17C44.8723 784.462 45.0872 784.799 45.9579 786.357C45.0402 791.829 12.6893 825.938 6.37353 832.699C3.88137 832.721 4.70059 832.747 2.24633 830.702L2.07196 822.066L0 822.3L0 817.725Z"/><path fill="#FEF4D6" d="M2.07196 822.066C10.4189 814.929 34.8306 787.392 41.3013 785.402L42.4821 786.087C42.1663 789.847 7.49464 824.872 2.24633 830.702L2.07196 822.066Z"/><path fill="#FEEEC3" d="M1495.62 804.665C1495.41 781.475 1493.18 758.093 1497.54 735.47C1498.22 731.924 1498.03 724.788 1498.1 720.93C1500.17 742.892 1499.8 783.125 1499.19 805.904C1499.54 823.354 1499.64 840.806 1499.52 858.258C1499.53 866.217 1499.23 879.307 1500.22 887L1495.85 887C1494.37 881.319 1494.79 810.565 1495.62 804.665Z"/><path fill="#FEEEC3" d="M0 805.118C9.09227 800.042 23.6484 778.943 32.1181 771.031C37.371 766.124 42.6964 760.499 48.1351 755.681C57.4372 745.796 71.3374 732.48 80.7531 722.014C80.7532 722.014 82.774 721.857 83.0772 721.833C85.8246 723.121 85.0488 722.324 86.3364 724.686C83.9581 728.965 72.8096 736.883 68.8761 741.174C55.479 755.787 41.3963 769.48 27.3743 783.434C17.8156 792.946 10.6394 802.024 0 810.65L0 805.118Z"/><path fill="#FEEEC3" d="M0 772.453C15.6258 754.907 30.9434 737.875 47.6069 721.183C50.5155 718.27 51.2741 716.594 55.8094 716.222L57.7971 717.168L56.3814 716.254L57.3028 716.478L57.6071 717.673C52.8073 723.988 47.6466 726.874 42.5555 732.475C30.0467 746.236 13.6825 765.865 0 778.152L0 772.453Z"/><path fill="#FEEEC3" d="M0 757.588C7.03595 750.126 36.0352 719.89 45.3645 716.74L46.7682 717.311C46.5773 717.884 3.47209 761.235 1.72895 761.984C1.16645 762.226 0.5949 762.398 0 762.533L0 757.588Z"/><path fill="#FEE6AD" d="M167.742 338.459C167.11 332.381 167.107 273.923 168.703 271.346C172.636 274.367 171.002 283.972 170.556 288.629C169.747 297.072 172.455 334.235 169.184 339.061L167.742 338.459Z"/><path fill="#FEE6AD" d="M151.201 333.625L151.329 332.772C153.224 319.48 149.742 279.567 153.366 271.463C155.778 276.62 153.998 324.196 154.738 334.582L151.201 333.625Z"/><path fill="#FEE6AD" d="M159.761 335.059C159.99 326.271 159.41 275.846 160.77 271.272L161.84 270.779C164.197 275.479 161.437 325.435 162.677 335.501L159.761 335.059Z"/><path fill="#FEEEC3" d="M0 745.603C6.10592 738.766 10.7176 733.787 17.4333 727.423C12.8626 740.239 9.15892 742.26 0 752.301L0 745.603Z"/><path fill="#FEE09B" d="M143.854 309.941C143.916 304.786 143.34 273.759 144.576 271.551L145.562 271.708C146.873 276.163 147.07 310.382 145.033 313.472L143.854 309.941Z"/><path fill="#FEE6AD" d="M136.251 300.719C136.209 295.639 135.103 274.515 136.635 270.996C140.882 273.705 139.173 298.733 137.282 301.549L136.251 300.719Z"/><path fill="#FEE6AD" d="M128.221 296.038C127.618 288.124 127.62 280.176 128.229 272.263L128.96 271.89C130.852 276.695 132.359 292.877 129.227 296.387L128.221 296.038Z"/><path fill="#FEE09B" d="M120.435 293.643C119.183 289.138 119.623 277.046 120.096 272.084C120.832 270.87 121.009 270.43 122.127 269.491C123.646 274.403 123.127 286.454 122.632 291.89C121.452 293.548 122.205 293.039 120.435 293.643Z"/><path fill="#FEEEC3" d="M0 796.496C9.25436 789.961 5.37925 784.82 17.7958 779.179C15.1512 784.383 4.53462 797.13 0 800.692L0 796.496Z"/><path fill="#FEF4D6" d="M1227.05 242.737C1254.83 239.879 1270.72 258.121 1267.24 285.172C1281.19 277.94 1291.05 284.682 1300.84 295.414C1308.87 304.212 1307.88 308.084 1307.13 319.055C1308.68 319.168 1316.09 319.621 1316.92 320.054C1325.42 324.539 1326.22 326.255 1335.44 329.157L1135.63 329.279C1136.47 337.138 1136.5 338.515 1136.28 346.775C1143.51 343.5 1148.24 342.309 1153.21 349.76C1154.73 351.821 1157.73 348.866 1159.28 347.844C1175.64 337.089 1180.58 353.364 1181.06 367.668C1194.58 366.411 1195.78 366.679 1207.96 372.659L1147.51 372.574L988.995 372.527C992.103 371.353 1000.88 368.911 1002.88 367.349C1010.89 361.105 1010.76 356.709 1022.29 362.836C1025.82 343.76 1043.11 324.521 1062.94 334.859C1065.31 323.467 1068.93 314.919 1079.31 308.216C1087.58 302.92 1097.65 301.219 1107.19 303.504C1120.86 306.716 1127.66 314.584 1134.46 325.739C1144.1 304.315 1151.14 320.743 1159.28 314.991C1161.71 313.275 1159.92 305.386 1166.14 303.163C1169.7 301.892 1173.93 305.074 1177.21 303.669C1180.76 302.142 1179.75 293.125 1184.73 290.228C1189.06 287.713 1194.06 288.888 1198.55 290.097C1198.34 289.297 1198.13 288.495 1197.93 287.691C1192.3 264.613 1204.75 247.937 1227.05 242.737Z"/><path fill="#FEEEC3" d="M328.021 89.4265C358.171 87.5247 384.206 110.309 386.317 140.445C388.428 170.58 365.826 196.773 335.705 199.094C305.287 201.438 278.78 178.562 276.647 148.129C274.515 117.695 297.574 91.3472 328.021 89.4265Z"/><path fill="#FEF4D6" d="M464.184 363.94C477.851 363.448 492.205 366.134 501.231 377.716C506.421 384.376 508.963 394.85 507.534 403.143C507.159 405.324 505.987 407.079 505.646 409.415C508.648 408.133 515.056 405.153 517.986 405.949C530.739 409.411 527.807 421.476 529.237 423.313L529.831 423.149C536.836 421.233 541.766 419.059 548.191 422.715C548.247 426.095 545.173 424.525 544.853 428.103L547.216 428.174C548.884 426.853 549.979 426.239 551.78 425.178C568.547 425.8 560.405 443.496 565.505 443.18C575.647 442.553 579.269 445.865 587.167 450.904C560.764 447.701 532.881 449.041 506.118 448.567C459.443 448.395 413.336 451.042 366.68 450.758C373.648 448.381 384.412 447.2 388.59 443.06C391.265 440.409 394.669 441.34 398.567 441.538C398.73 440.592 398.895 439.536 398.865 438.578C398.55 428.446 405.418 415.718 412.663 408.779C417.951 403.714 423.684 402.897 430.886 403.33C433.505 382.04 443.323 369.903 464.184 363.94Z"/><path fill="#FEEEC3" d="M1434.89 90.816C1464.18 88.3912 1489.9 110.114 1492.41 139.388C1494.93 168.663 1473.28 194.453 1444.02 197.056C1414.62 199.67 1388.7 177.912 1386.17 148.511C1383.65 119.111 1405.49 93.2512 1434.89 90.816Z"/><path fill="#FEE09B" d="M1167.23 123.426C1192.96 119.085 1217.29 136.57 1221.38 162.342C1225.47 188.115 1207.75 212.275 1181.94 216.118C1156.48 219.909 1132.72 202.483 1128.68 177.06C1124.65 151.637 1141.84 127.707 1167.23 123.426Z"/><path fill="#FEF4D6" d="M737.877 329.359C760.996 327.791 777.833 339.837 783.431 362.19C800.876 355.295 804.849 365.293 808.121 380.348C818.524 374.212 822.101 380.242 825.308 386.642C825.529 387.082 831.261 386.832 833.64 389.371C832.133 390.717 761.327 390.069 753.387 390.098C719.276 390.08 685.164 390.256 651.055 390.626C653.599 389.698 657.957 388.249 660.611 387.981C670.287 387.001 667.62 386.119 672.471 379.701C675.103 377.899 678.99 377.831 682.252 377.482C685.06 374.764 685.046 370.073 687.805 366.125C691.205 361.26 696.494 361.336 702.248 360.433C712.678 340.06 713.959 334.401 737.877 329.359Z"/><path fill="#FEE09B" d="M198.046 206.388C198.167 206.35 198.288 206.312 198.41 206.275C227.106 203.306 247.518 236.371 232.888 260.662C225.68 272.629 216.475 275.56 205.107 278.408C156.345 282.925 149.512 212.685 198.046 206.388Z"/><path fill="#FEEEC3" d="M107.006 106.322C125.37 103.058 142.918 115.249 146.267 133.598C149.616 151.946 137.506 169.551 119.173 172.985C100.72 176.441 82.9747 164.234 79.6037 145.765C76.2327 127.296 88.5216 109.607 107.006 106.322Z"/><path fill="#FEF4D6" d="M1125.9 494.849C1153.67 494.808 1145.82 512.762 1150.22 514.59C1151.59 515.161 1153.49 514.501 1155.09 515.282C1157.29 516.349 1158.12 519.745 1159.99 521.164C1162.2 522.844 1166.06 521.997 1168.68 524.001C1171.08 525.843 1171.94 529.18 1174.13 531.219C1175.52 532.516 1177.6 533.305 1179.16 534.48C1175.98 536.468 1144.53 534.464 1136.68 534.791C1134.63 535.076 1132.48 534.916 1130.41 534.998C1113.39 535.67 1096.31 535.271 1079.33 536.727C1089.06 531.192 1094.8 533.838 1097.43 522.264C1098.09 519.357 1104.8 517.386 1107.76 516.368C1111.08 503.851 1113.02 499.313 1125.9 494.849Z"/><path fill="#FEE6AD" d="M1729.39 625.021L1730.75 624.993C1733.48 627.596 1740.68 639.824 1743.09 643.719C1740.07 651.082 1736.61 656.831 1731.88 663.16C1722.21 662.829 1707.61 660.853 1705.25 674.15C1707.28 675.595 1708.27 675.004 1711.27 674.914L1710.11 675.126C1695.71 676.494 1691.52 668.867 1684.3 657.812C1688.86 645.924 1686.66 648.457 1697.5 642.507C1700.97 640.604 1706.5 629.433 1709.01 625.073L1729.39 625.021Z"/><path fill="#FEEEC3" d="M1710.14 627.32C1715.43 627.687 1723.05 627.5 1728.51 627.527C1729.92 630.658 1736.13 640.206 1738.35 644.026C1734.58 650.135 1732.77 654.519 1729.91 661.158C1723.65 660.881 1717.03 660.864 1710.73 660.748C1707.74 655.271 1704.74 649.445 1701.15 644.378C1704.1 638.665 1707.09 632.979 1710.14 627.32Z"/><path fill="#FEEEC3" d="M471.53 784.055C476.397 785.528 483.259 785.17 488.425 785.107C496.906 791.099 498.864 796.601 503.081 805.813C500.964 815.126 496.356 826.33 485.927 828.552C467.525 833.555 458.72 821.271 453.812 805.472C461.996 794.282 459.147 793.432 471.53 784.055Z"/><path fill="#FEEEC3" d="M99.3343 781.846C104.812 777.205 115.348 762.962 120.869 761.811L121.944 762.863C121.586 768.63 115.815 772.547 111.2 777.048C110.213 779.068 109.64 779.858 108.312 781.681C111.766 782.923 110.887 782.064 112.317 784.633C109.751 788.756 107.331 786.679 104.812 787.547L106.337 788.61C104.219 792.119 100.225 795.878 97.7435 799.205C89.5508 810.188 57.6777 849.825 46.6086 854.994L44.5992 854.975L44.1523 853.797C45.4796 851.541 47.1551 849.888 49.0908 848.152C68.2343 830.987 82.5058 811.498 98.5625 791.784L98.2531 790.542L95.1641 790.141C92.5658 796.039 41.1202 850.335 36.7285 852.557L34.0604 851.659L33.4746 850.274C45.8597 832.179 83.9932 804.445 92.5248 786.286L89.0256 785.931C82.9741 791.54 28.3617 847.893 26.5007 848.497C23.66 847.455 24.3882 848.107 22.6791 846.152C23.6931 844.16 29.0415 839.522 30.6697 837.814C38.8822 829.203 103.819 763.381 110.177 763.905C110.435 768.392 103.233 774.906 99.6936 777.126C98.0527 779.073 95.6979 781.317 95.2886 783.651C98.0042 783.254 96.9521 783.635 99.3343 781.846Z"/><path fill="#FEE09B" d="M784.848 222.515C787.115 219.682 790.134 220.2 793.753 220.302L801.866 234.912C800.742 237.219 797.996 242.221 797.838 244.481C800.4 242.95 800.231 242.45 802.765 242.762L803.978 244.267L803.263 248.744C804.664 246.905 809.816 236.948 811.066 234.573L827.679 234.705C830.31 239.711 832.627 243.86 835.575 248.685C832.773 253.388 830.028 258.586 827.38 263.413C821.119 263.519 816.72 263.38 810.474 262.909C808.077 258.681 806.078 255.135 803.318 251.107C797.58 251.54 792.711 252.092 786.97 251.496L786.584 252.256C779.589 266.059 777.631 271.562 792.493 278.464L792.622 279.617C784.258 280.665 782.327 272.886 778.257 266.009C780.363 261.91 783.774 256.434 783.533 252.047C781.034 248.057 769.746 249.273 769.303 234.002L768.667 233.602C771.388 233.122 771.479 224.737 778.578 221.541C781.473 221.375 782.086 221.261 784.848 222.515Z"/><path fill="#FEEEC3" d="M769.303 234.002L768.667 233.602C771.388 233.122 771.479 224.737 778.578 221.541C781.473 221.375 782.086 221.261 784.848 222.515C795.64 222.741 794.632 226.741 799.968 234.798C798.761 237.154 794.283 245.597 793.763 247.555C790.994 248.955 781.208 248.496 777.61 248.48C774.814 243.146 772.678 238.989 769.303 234.002Z"/><path fill="#FEEEC3" d="M812.14 236.729L826.672 236.657C828.583 240.771 831.185 245.143 833.431 249.13C831.059 252.654 828.303 257.661 826.094 261.428C821.438 261.622 816.784 261.873 812.135 262.181C809.568 257.39 807.865 254.538 804.787 250.055C807.382 245.693 809.834 241.249 812.14 236.729Z"/><path fill="#FEE09B" d="M419.246 81.4238C424.31 81.3578 434.335 81.848 439.176 82.5893C441.204 86.1228 441.616 212.447 440.652 223.254C438.442 219.297 439.909 128.489 437.797 116.242C436.589 109.236 438.778 91.633 437.533 84.6414L435.114 84.8003C432.693 90.2105 431.987 191.13 431.845 203.776C430.036 214.516 432.183 227.852 430.888 235.925L429.577 236.418L427.954 235.604C428.377 221.484 427.605 205.871 427.322 191.623L425.747 111.803C425.641 106.412 426.524 88.4176 425.708 85.8335C423.947 84.0368 424.894 84.4748 422.014 84.406C423.191 105.005 421.164 127.071 420.321 147.62C419.648 164.028 420.455 180.732 419.555 197.101C418.816 192.25 419.25 168.882 419.247 161.874L419.246 81.4238Z"/><path fill="#FEEEC3" d="M1555.41 411.994C1553.24 407.884 1549.57 399.59 1546.22 397.286C1542.94 397.203 1540.86 396.777 1538.35 394.428C1540.08 393.669 1546 394.017 1548.24 394.05C1551.07 400.082 1554.26 406.281 1557.23 412.271L1553.23 419.399L1553.7 422.136C1560.59 424.317 1568.92 422.129 1570.35 423.776L1570.25 424.728C1574.1 433.493 1578.17 435.764 1576.68 444.311C1572.35 448.864 1573.62 444.825 1571.8 447.956C1572.64 457.958 1557.52 455.669 1550.77 455.745C1548.59 451.096 1544.75 444.968 1542.04 440.406L1546.89 430.091C1544.04 430.011 1541.02 430.282 1538.67 428.927C1540.99 427.559 1544.66 427.809 1547.51 427.739C1550.03 422.32 1552.64 417.291 1555.41 411.994Z"/><path fill="#FEE09B" d="M1555.41 411.994C1553.24 407.884 1549.57 399.59 1546.22 397.286C1542.94 397.203 1540.86 396.777 1538.35 394.428C1540.08 393.669 1546 394.017 1548.24 394.05C1551.07 400.082 1554.26 406.281 1557.23 412.271L1553.23 419.399L1551.88 422.615L1552.58 423.858C1555.37 423.784 1556.3 422.977 1558.97 423.757L1559 423.717L1558.59 425.203C1555.39 425.536 1552.97 424.962 1551.07 427.508C1540.56 441.65 1546 441.538 1551.84 453.598C1561.71 454.302 1565.94 457.159 1571.8 447.956C1572.64 457.958 1557.52 455.669 1550.77 455.745C1548.59 451.096 1544.75 444.968 1542.04 440.406L1546.89 430.091C1544.04 430.011 1541.02 430.282 1538.67 428.927C1540.99 427.559 1544.66 427.809 1547.51 427.739C1550.03 422.32 1552.64 417.291 1555.41 411.994Z"/><path fill="#FEE6AD" d="M1576.68 444.311C1574.78 444.844 1575.67 444.903 1573.92 444.297C1576.11 435.742 1572.88 433.594 1568.04 424.938L1568.62 424.087L1570.25 424.728C1574.1 433.493 1578.17 435.764 1576.68 444.311Z"/><path fill="#FEF4D6" d="M1227.68 409.034C1231.08 411.099 1235.85 412.446 1239.7 413.722C1246.26 433.906 1247.77 421.926 1238.07 442.942C1234.18 444.007 1231.73 444.77 1227.99 446.244C1225.19 444.983 1221.29 444.836 1219.63 443.83C1213.42 440.063 1211.99 433.967 1206.34 427.807C1211.06 422.923 1213.09 419.075 1216.39 413.267C1221.13 411.883 1223.23 411.028 1227.68 409.034Z"/><path fill="#FEEEC3" d="M545.822 177.016C548.821 178.983 553.155 179.814 556.704 180.726C559.943 186.388 562.611 190.46 566.33 195.83C562.525 200.366 558.776 206.774 555.574 211.911C552.691 212.496 549.709 212.966 546.802 213.459C543.542 213.263 538.679 211.871 535.379 211.049C533.123 205.117 530.876 200.985 527.212 195.88C529.732 192.08 532.407 186.715 534.606 182.602C539.337 180.672 541.423 179.834 545.822 177.016Z"/><path fill="#FEF4D6" d="M1396.55 722.541L1396.52 723.427C1396.09 733.147 1397.18 732.645 1403.15 741.898C1410.11 742.001 1418.79 744.036 1424.21 739.743C1424.76 739.309 1425.02 739.21 1425.68 739.002C1427.24 736.921 1428.77 734.811 1430.25 732.673L1432.47 733.018C1437.62 731.967 1441.73 732.323 1446.95 732.495C1450.01 736.966 1453.26 743.605 1455.22 748.634C1451.79 754.166 1449.39 758.353 1446.43 764.152L1427.71 764.236C1416.71 745.605 1425.67 742.806 1401.59 743.799C1399.13 739.505 1393.47 730.661 1393.75 725.949C1395.13 723.294 1394.37 723.999 1396.55 722.541Z"/><path fill="#FEE6AD" d="M1396.55 722.541L1396.52 723.427C1396.09 733.147 1397.18 732.645 1403.15 741.898C1410.11 742.001 1418.79 744.036 1424.21 739.743C1424.76 739.309 1425.02 739.21 1425.68 739.002L1421.03 747.486C1423.46 751.692 1426.45 758.046 1428.73 762.518C1434.68 762.736 1439.13 762.428 1445.08 762.022C1447.77 757.009 1450.09 752.967 1453.12 748.152C1450.71 743.082 1448.34 738.847 1445.58 733.965C1440.8 734.009 1437.14 734.263 1432.47 733.018C1437.62 731.967 1441.73 732.323 1446.95 732.495C1450.01 736.966 1453.26 743.605 1455.22 748.634C1451.79 754.166 1449.39 758.353 1446.43 764.152L1427.71 764.236C1416.71 745.605 1425.67 742.806 1401.59 743.799C1399.13 739.505 1393.47 730.661 1393.75 725.949C1395.13 723.294 1394.37 723.999 1396.55 722.541Z"/><path fill="#FED87D" d="M1659.16 119.186L1674.56 119.28C1677.49 123.901 1679.95 129.261 1682.37 134.199C1679.88 138.604 1677.42 143.026 1674.99 147.464C1669.64 147.414 1664.04 147.549 1658.68 147.596C1656.02 142.778 1653.42 137.929 1650.88 133.051C1653.67 128.012 1655.99 123.996 1659.16 119.186Z"/><path fill="#FEE09B" d="M1659.98 121.359C1665.38 122.428 1668.38 122.049 1673.72 121.579L1680.15 134.079C1678.12 137.658 1676.06 141.805 1674.12 145.489L1659.93 145.413C1657.6 141.527 1655.31 137.62 1653.06 133.694C1655.31 129.554 1657.62 125.443 1659.98 121.359Z"/><path fill="#FEEEC3" d="M416.62 588.662C418.322 589.46 418.357 589.534 419.573 591.008C419.476 591.538 419.329 592.568 418.89 592.983C397.266 613.427 377.7 636.049 356.926 657.233C356.085 658.091 359.176 657.839 360.193 659.952C348.588 669.82 337.968 682.933 327.199 694.119C325.694 695.048 326.34 694.824 324.242 694.528C323.959 694.043 323.616 693.455 323.212 692.763C326.4 686.35 349.582 666.508 350.329 661.079L348.076 660.01C349.549 656.029 407.908 600.108 416.62 588.662Z"/><path fill="#FEE09B" d="M1568.79 183.298C1571.56 184.271 1571.73 183.802 1573.14 185.926C1571.12 189.64 1555.9 202.806 1552.12 206.984C1528.71 232.826 1505.16 256.688 1480.12 280.948C1479.59 281.492 1478.99 281.679 1478.25 282.038L1477.34 281.017C1477.77 276.755 1504.75 251.196 1509.13 246.253C1528.27 224.667 1548.11 203.417 1568.79 183.298Z"/><path fill="#FEE09B" d="M1554.91 178.071C1557.8 179.109 1559.35 179.06 1560.82 181.177C1530.82 210.6 1504.38 239.818 1474.9 269.55C1474.23 270.541 1474.53 270.105 1473.15 270.711L1472.01 269.262C1472.31 264.612 1485.68 252.55 1489.8 248.345C1502.67 235.205 1514.12 221.073 1526.61 207.666C1536.19 197.386 1546.31 189.462 1554.91 178.071Z"/><path fill="#FEEEC3" d="M109.579 741.453C111.345 743.278 111.072 742.483 111.41 744.684C102.789 754.143 94.2905 760.504 85.7361 769.157C78.8518 776.814 73.4561 784.976 66.6224 792.747C51.1301 810.366 33.257 826.564 18.0246 844.276C15.7051 842.935 16.1531 843.66 15.516 841.603C28.7849 827.278 44.7609 811.076 57.0431 796.404C74.3832 775.689 88.5194 758.997 109.579 741.453Z"/><path fill="#FEE09B" d="M1588.84 196.297C1590.9 197.618 1591.34 197.802 1592.32 200.014C1591.45 203.131 1547.13 243.978 1542.39 251.056C1539.52 255.335 1527.83 268.361 1523.88 273.125C1515.84 282.811 1502.62 291.02 1495.84 302.135C1494.61 302.235 1494.02 301.672 1492.94 300.999C1493.49 298.337 1524.91 267.001 1529 261.192C1545.68 237.544 1570.04 218.107 1588.84 196.297Z"/><path fill="#FEE09B" d="M1580.63 189.408C1581.8 190.063 1582.48 190.935 1583.4 191.918C1583.25 192.454 1583.11 192.99 1582.96 193.526C1566.13 209.7 1549.71 226.039 1534.07 243.372C1518.94 260.143 1502.63 276.961 1486.18 292.435C1485.59 292.402 1484.89 291.862 1484.34 291.532C1485.04 288.062 1571.61 198.305 1580.63 189.408Z"/><path fill="#FEE6AD" d="M1596.33 206.67C1598.65 206.457 1599.19 207.422 1599.83 209.17C1595.97 218.912 1542.74 262.34 1536.01 278.408C1534.17 282.807 1512.21 303.523 1506.92 308.755L1504.78 308.671L1504.55 307.632C1514.74 295.874 1523.19 287.235 1534.26 276.268C1538.12 272.434 1544.03 260.478 1549.53 254.606C1564.72 238.369 1580.71 222.474 1596.33 206.67Z"/><path fill="#FEEEC3" d="M1333.37 595.743C1334.07 596.319 1334.73 597.265 1335.32 597.999C1333.79 604.113 1263.27 669.107 1257.96 682.778C1257.51 683.929 1253.43 687.841 1252.3 688.798L1251.16 688.475C1250.69 687.874 1250.29 687.705 1250.38 686.908C1251.64 675.386 1297.18 632.346 1308.65 620.601C1316.74 612.317 1324.27 602.891 1333.37 595.743Z"/><path fill="#FEEEC3" d="M1304.3 567.586L1304.9 568.654C1300.1 582.069 1231.4 645.213 1217.67 659.736C1217 658.928 1216.55 657.963 1216.04 657.028C1216.54 655.051 1216.21 655.175 1217.52 653.857C1229.76 641.546 1242.36 630.131 1254.55 617.66L1283.29 588.537C1289.46 582.171 1297.45 572.661 1304.3 567.586Z"/><path fill="#FEE6AD" d="M1603.11 216.264C1605.03 217.901 1605.39 218.134 1606.18 220.502C1605.27 224.973 1557.44 267.684 1551.11 276.887C1542.81 288.961 1529.85 304.256 1520.17 315.41L1517.96 313.744C1533.43 293.791 1548.91 273.261 1566.4 255.115C1578.76 242.289 1591.43 229.716 1603.11 216.264Z"/><path fill="#FEE09B" d="M1538.4 176.406C1540.93 176.438 1541.43 176.396 1543.77 177.314C1543.83 177.822 1543.88 178.33 1543.93 178.839C1525.95 199.115 1486.92 237.301 1472.03 255.942L1470.29 257.661L1469.5 256.446C1469.56 255.599 1469.63 254.553 1469.71 253.307C1480.49 236.245 1503.23 215.411 1515.85 201.82C1523.51 193.471 1531.02 184.999 1538.4 176.406Z"/><path fill="#FEF4D6" d="M325.767 765.729C328.865 764.845 329.625 764.613 332.845 764.49C335.131 768.078 341.563 777.235 341.97 780.809L341.538 781.764C335.828 789.49 333.69 793.996 323.232 792.1C322.834 791.876 322.208 790.99 321.917 790.631L315.862 783.06L315.605 781.365C315.593 775.108 321.172 771.644 325.767 765.729Z"/><path fill="#FEEEC3" d="M325.767 765.729C328.865 764.845 329.625 764.613 332.845 764.49C335.131 768.078 341.563 777.235 341.97 780.809C335.941 777.076 336.476 768.294 327.687 766.333C326.06 768.75 317.664 779.655 315.605 781.365C315.593 775.108 321.172 771.644 325.767 765.729Z"/><path fill="#FEEEC3" d="M323.232 792.1C326.122 790.02 329.726 791.612 331.299 790.487C335.565 787.434 335.679 782.593 341.538 781.764C335.828 789.49 333.69 793.996 323.232 792.1Z"/><path fill="#FEEEC3" d="M315.862 783.06C319.748 782.18 322.377 787.371 321.917 790.631L315.862 783.06Z"/><path fill="#FEEEC3" d="M353.052 679.908C361.568 668.804 419.729 599.16 427.993 597.666L429.623 598.712C429.596 601.421 428.853 602.071 426.545 604.302C404.334 625.381 383.675 648.039 364.731 672.097C361.696 675.908 357.263 679.734 354.65 683.593L353.052 679.908Z"/><path fill="#FEF4D6" d="M296.15 290.756C299.857 291.878 306.904 301.782 312.55 306.015C306.558 310.398 300.809 316.816 297.903 323.724C290.568 316.227 292.032 314.044 281.019 306.358C285.828 300.913 291.001 295.876 296.15 290.756Z"/><path fill="#FEEEC3" d="M1338.67 607.813C1339.13 608.784 1338.97 609.539 1338.9 610.622C1323.93 633.004 1309.74 647.352 1290.3 665.671C1282.57 672.957 1274.44 687.824 1266.08 693.846C1265.91 693.343 1265.8 692.835 1265.77 692.303C1265.13 682.262 1329.1 619.843 1338.67 607.813Z"/><path fill="#FEF4D6" d="M1432.04 268.168C1437.09 270.027 1441.74 277.714 1448.56 282.229C1444.14 286.587 1438.74 293.323 1434.6 298.19C1429.42 294.048 1425.32 287.725 1418.12 282.404C1423.28 278.473 1427.73 273.069 1432.04 268.168Z"/><path fill="#FEEEC3" d="M1289.48 562.999L1291.87 563.584L1292.67 564.973C1286.72 573.233 1219.33 641.586 1213.99 644.88C1213.61 645.446 1213.32 645.444 1212.59 645.824L1211.7 644.052C1212.84 639.639 1245.77 608.626 1251.17 602.81C1263.3 589.752 1277.9 576.985 1289.48 562.999Z"/><path fill="#FEEEC3" d="M363.505 686.239C369.663 678.833 432.424 608.377 436.155 606.376L437.514 607.767L437.58 607.151C435.253 616.775 403.789 646.006 395.824 655.601C392.766 659.284 371.256 684.615 368.336 686.526C367.01 686.344 364.906 686.309 363.505 686.239Z"/><path fill="#FEEEC3" d="M123.485 773.32C123.719 773.588 123.952 773.856 124.186 774.124C124.586 774.633 125.08 778.422 124.811 778.716C113.672 790.894 70.2168 850.429 57.667 856.427L56.5949 854.539C65.403 843.228 77.7851 831.986 87.1699 820.191C99.6483 804.507 110.255 788.293 123.485 773.32Z"/><path fill="#FEEEC3" d="M1620.15 686.721C1628.79 686.663 1631.31 693.272 1635.8 699.858C1632.6 703.502 1629.35 707.093 1626.04 710.631C1624.09 710.959 1623.14 710.978 1621.16 711.025C1616.91 708.797 1613.27 703.998 1609.78 700.274C1612.71 693.439 1614.85 691.976 1620.15 686.721Z"/><path fill="#FEE6AD" d="M1607.83 230.899C1609.4 231.513 1609.05 231.654 1610.17 233.47C1610.1 233.991 1610.01 234.618 1609.91 235.352C1586.86 257.438 1555.71 289.104 1534.15 310.411C1533.63 310.783 1533.32 310.714 1532.57 310.835C1533.44 305.295 1599.17 239.375 1607.83 230.899Z"/><path fill="#FEEEC3" d="M124.447 787.199L125.127 788.038C125.37 789.623 125.865 791.796 124.761 793.17C114.829 805.52 80.9386 850.414 68.8912 854.685L67.9835 853.059C74.6951 844.516 85.9092 833.44 93.555 824.31C103.883 811.979 113.954 799.215 124.447 787.199Z"/><path fill="#FEEEC3" d="M1273.79 560.94C1276.34 561.51 1276.36 561.046 1277.58 562.624C1274.9 566.107 1257.92 583.045 1253.97 586.993C1240.13 600.816 1225.58 617.587 1211.55 630.717L1210.48 631.653L1209.33 630.972L1209.18 628.205C1211.97 623.908 1226.08 610.132 1230.37 605.742C1244.86 590.885 1259.91 576.42 1273.79 560.94Z"/><path fill="#FEE09B" d="M23.4527 156.114C26.9433 156.366 26.8584 156.275 28.8453 158.353C29.0582 168.89 27.9502 243.552 26.249 247.781L25.1343 247.563C24.9163 247.02 22.8919 160.102 23.4527 156.114Z"/><path fill="#FEE09B" d="M1519.88 179.058C1521.29 179.012 1521.34 179.138 1522.7 179.489C1522.63 182.422 1499.97 203.924 1496.25 208.416C1487.88 218.49 1479.73 229.144 1470.48 238.343L1469.64 239.154L1469.19 237.442C1471.98 225.521 1509.35 186.562 1519.88 179.058Z"/><path fill="#FEEEC3" d="M404.672 582.691C406.886 583.917 406.451 583.255 407.321 585.212C406.808 586.11 352.543 641.884 349.738 643.837C347.523 642.731 348.078 643.41 347.241 641.426C350.946 634.031 394.303 594.268 404.672 582.691Z"/><path fill="#FEF4D6" d="M368.336 686.526C368.981 686.821 369.773 687.185 370.714 687.616C383.282 686.328 400.701 687.698 412.996 686.691C417.366 683.91 415.427 681.523 420.075 679.104L420.911 679.83C418.466 682.906 417.081 683.428 417.157 686.478C419.036 684.315 419.969 681.991 421.844 681.481L422.15 682.524L419.889 686.425C428.437 688.188 448.132 686.755 457.795 686.955C491.569 687.652 525.802 685.79 559.51 687.483C563.557 687.687 565.598 685.476 568.105 688.521C558.046 690.547 536.044 687.051 526.731 688.047C514.825 689.321 433.719 686.466 429.64 688.438L427.035 688.705C423.786 688.691 419.775 688.983 416.917 687.655L410.542 688.592L406.241 688.548C404.212 688.465 401.65 688.579 399.574 688.61C394.537 689.058 387.188 687.577 383.955 688.307L379.605 688.868C375.475 688.827 371.347 688.72 367.221 688.548C364.64 688.676 362.126 688.593 359.823 689.756L357.71 688.501L357.494 687.36C359.422 685.829 361.063 686.163 363.505 686.239C364.906 686.309 367.01 686.344 368.336 686.526Z"/><path fill="#FEEEC3" d="M839.204 117.414C842.037 119.006 849.428 128.63 851.657 131.544C847.223 135.932 844.021 139.239 840.009 144C836.641 142.074 832.429 135.125 826.62 131.281C831.261 126.673 835.455 122.79 839.204 117.414Z"/><path fill="#FEEEC3" d="M363.63 581.156L364.134 582.051C363.632 585.512 354.182 594.05 351.463 597.611C340.487 611.985 324.3 630.967 310.559 642.695L309.146 641.165C308.837 637.145 314.974 631.782 317.84 629.09C332.834 615.009 345.929 599.536 358.953 583.674C359.99 582.411 362.089 581.602 363.63 581.156Z"/><path fill="#FEEEC3" d="M440.965 617.204C443.183 618.195 442.543 617.518 443.402 619.698C439.05 631.356 402.906 666.255 393.147 678.339C391.373 677.087 390.921 676.977 390.148 675.061C407.868 655.631 426.1 638.941 440.965 617.204Z"/><path fill="#FEEEC3" d="M58.5418 780.523C59.6497 780.904 60.1554 781.651 60.9613 782.524L60.7801 784.38C51.2858 794.817 41.8511 805.307 32.4765 815.85C26.6019 822.516 17.2576 834.028 10.9097 839.164L8.85184 837.141L8.96672 835.497C18.8467 825.562 28.3781 815.287 37.5439 804.69C44.4386 796.655 50.6785 786.368 58.5418 780.523Z"/><path fill="#FEEEC3" d="M1329.7 637.995C1331.08 639.021 1330.53 638.387 1331.28 640.069C1327.33 649.131 1291.41 680.642 1284.38 691.666C1283.79 692.604 1281.04 693.484 1279.83 693.767L1278.84 692.366C1281.09 686.665 1322.34 644.744 1329.7 637.995Z"/><path fill="#FEF4D6" d="M429.026 654.134C430.755 649.775 432.067 646.129 434.522 642.083L435.466 641.822C435.026 646.143 428.658 656.896 427.474 661.684C426.372 666.146 428.491 673.677 426.79 677.91C418.349 683.184 416.593 668.857 405.355 673.622C400.803 675.552 398.951 681.689 394.435 680.326L393.613 678.594C395.784 677.862 395.837 680.239 399.121 676.77C403.425 672.226 406.126 671.27 412.341 671.942C412.787 668.844 426.134 654.919 429.026 654.134Z"/><path fill="#FEE6AD" d="M412.341 671.942C412.787 668.844 426.134 654.919 429.026 654.134C427.095 661.953 421.65 667.467 415.253 672.093C413.903 672.126 413.694 672.21 412.341 671.942Z"/><path fill="#FEEEC3" d="M425.014 669.582C426.236 671.1 426.034 673.486 425.912 675.266C424.229 677.97 425.175 677.23 422.451 678.28C421.449 677.282 420.633 676.248 419.735 675.16C420.323 672.28 422.091 671.825 425.014 669.582Z"/><path fill="#FEE09B" d="M320 476.884C322.637 471.494 325.263 465.734 328.417 460.629C330.139 457.842 332.151 457.996 335.189 457.585L336.192 458.264L335.679 459.23C330.685 460.42 331.134 459.424 328.858 463.22C326.348 467.408 324.639 472.162 322.092 476.196L331.051 492.001C337.279 491.846 343.745 491.587 349.951 491.539C352.6 486.396 355.564 480.263 358.737 475.542C356.825 472.242 352.004 462.19 350.201 460.405L346.927 459.549L347.368 458.554C350.772 458.452 349.479 458.092 352.297 459.813C355.283 465.025 358.266 470.757 360.204 476.464C357.193 481.889 354.135 487.252 351.468 492.854C347.107 492.904 335.161 492.794 331.489 493.527L331.968 498.071L331.143 499.065L330.007 498.552C330.127 495.116 330.517 496.187 329.083 493.646C327.965 495.77 326.647 496.21 324.561 496.58C321.212 493.46 321.402 488.261 324.485 484.971C320.479 478.856 319.399 479.837 311.626 477.812C314.91 476.634 316.487 476.831 320 476.884Z"/><path fill="#FEF4D6" d="M324.485 484.971C326.162 487.775 327.979 490.578 329.083 493.646C327.965 495.77 326.647 496.21 324.561 496.58C321.212 493.46 321.402 488.261 324.485 484.971Z"/><path fill="#FEEEC3" d="M1316.48 575.677C1318.08 576.3 1317.43 575.802 1318.43 577.33C1317.48 578.978 1274.99 622.085 1273.27 623.071L1272.7 622.014C1271.54 621.855 1270.35 622.109 1269.16 622.254C1270.87 618.447 1311.5 578.63 1316.48 575.677Z"/><path fill="#FEEEC3" d="M122.342 801.892L123.149 802.515C123.931 816.603 98.4381 841.252 86.5895 848.54L85.8476 847.606C88.4612 843.397 93.7439 838.336 97.0674 834.325C106.473 822.973 115.69 815.127 122.342 801.892Z"/><path fill="#FEEEC3" d="M1336.32 647.841L1336.98 648.666C1336.75 656.828 1308.97 683.946 1301.5 687.87L1300.6 686.867C1301.84 682.61 1331.46 652.578 1336.32 647.841Z"/><path fill="#FEEEC3" d="M104.565 757.911C107.67 755.047 110.487 751.203 113.923 750.07L115.647 750.661C116.13 756.475 110.422 760.699 105.129 761.513C99.8241 766.569 83.8331 782.463 78.218 785.534L77.7842 784.887C83.7358 773.991 95.0746 765.299 104.565 757.911Z"/><path fill="#FEEEC3" d="M1253.69 565.266C1255.04 565.644 1254.49 565.287 1255.38 566.398C1250.36 573.594 1221.57 602.424 1214.64 609.264L1213.46 609.488L1213.25 608.16C1215.58 601.76 1247.7 568.835 1253.69 565.266Z"/><path fill="#FEEEC3" d="M399.574 688.61C401.65 688.579 404.212 688.465 406.241 688.548C396.749 696.949 382.816 713.859 373.667 719.468L371.63 718.822C372.676 714.964 394.669 693.735 399.574 688.61Z"/><path fill="#FEEEC3" d="M383.955 688.307L385.878 689.001C384.956 692.363 360.735 717.722 355.457 715.674C355.836 713.506 375.956 693.081 379.605 688.868L383.955 688.307Z"/><path fill="#FEE6AD" d="M1606.21 268.349C1606.52 268.539 1606.81 269.051 1607.06 269.393C1602.67 279.964 1578.85 302.469 1569.62 312.68C1568.88 312.025 1569.19 312.246 1568.84 311.004C1583.12 292.464 1589.73 285.391 1606.21 268.349Z"/><path fill="#FEEEC3" d="M410.542 688.592L416.917 687.655C414.817 693.712 397.483 719.279 390.119 718.329C388.749 712.505 409.286 698.943 409.789 691.738C409.825 691.229 410.416 689.161 410.542 688.592Z"/><path fill="#FEEEC3" d="M348.816 616.425C350.591 617.6 352.657 616.399 355.632 617.969C351.467 623.076 340.912 633.263 335.296 639.604C335.058 639.852 333.354 640.986 332.952 641.263L331.502 640.986L331.257 639.478C333.199 634.377 344.589 620.773 348.816 616.425Z"/><path fill="#FEEEC3" d="M333.293 645.848C334.785 647.274 334.35 646.563 334.753 648.711C331.909 655.109 317.993 668.351 312.582 673.824C311.652 673.285 311.677 672.876 311.069 671.77C311.733 667.712 329.339 649.885 333.293 645.848Z"/><path fill="#FEEEC3" d="M359.823 689.756C362.126 688.593 364.64 688.676 367.221 688.548C365.644 693.136 349.186 710.104 343.69 709.909L343.087 708.04C346.809 702.8 358.949 694.638 359.823 689.756Z"/><path fill="#FEE09B" d="M301.108 477.25C302.863 477.503 304.639 477.801 306.393 478.078L306.004 479.103L301.323 480.482C299.33 482.12 294.481 493.801 292.983 497.015C295.61 500.949 299.967 509.703 302.362 514.188C307.788 513.445 310.448 512.904 315.582 514.781L316.315 514.627L316.552 515.272C314.642 515.442 299.538 516.259 299.041 514.793C296.704 507.891 294.088 502.685 290.323 496.507C292.906 491.539 297.904 481.232 301.108 477.25Z"/><path fill="#FEEEC3" d="M429.64 688.438C430.801 688.373 431.731 688.74 432.855 689.061C430.881 696.435 413.129 710.432 405.946 714.197C411.965 707.525 422.646 695.887 427.035 688.705L429.64 688.438Z"/><path fill="#FEEEC3" d="M341.153 589.774C341.122 590.068 341.161 591.983 340.904 592.172C335.141 596.411 318.234 620.406 315.148 623.414L314.727 620.667C317.53 612.148 333.805 595.03 341.153 589.774Z"/><path fill="#FEEEC3" d="M351.635 686.216C347.768 690.996 339.829 701.251 334.179 703.101L333.263 702.274C334.624 696.349 344.081 688.158 348.819 684.086L351.635 686.216Z"/><path fill="#FEEEC3" d="M98.7712 730.761L100.717 732.369C99.6071 736.028 83.7872 749.32 79.268 755.686C78.8855 755.707 77.8458 755.366 77.4127 755.248L77.3884 753.802C81.3489 746.68 92.5487 736.769 98.7712 730.761Z"/><path fill="#FEE6AD" d="M325.872 638.284L326.384 638.505L326.801 639.641C323.594 646.773 315.602 653.608 309.817 659.279L308.856 658.92L308.254 656.997C309.208 651.777 321.467 641.974 325.872 638.284Z"/><path fill="#FED87D" d="M1454.28 667.902L1455.72 667.829L1457.26 668.131C1463.51 672.955 1457.21 683.833 1450.54 679.054C1449.22 676.339 1450.29 671.305 1451.11 668.445L1454.28 667.902Z"/><path fill="#FEE6AD" d="M1552.29 299.367C1553.76 300.138 1553.39 300.075 1554.44 301.64C1553.78 307.223 1544.13 315.928 1539.81 319.441L1536.55 318.418L1536.28 317.464C1544.64 311.043 1545.2 306.6 1552.29 299.367Z"/><path fill="#FED87D" d="M276.504 724.572C279.509 723.302 282.873 723.87 286.157 724.128C282.84 729.413 287.276 733.419 282.449 735.364C280.645 736.091 278.458 735.46 276.867 734.313C275.843 730.26 277.068 728.686 276.504 724.572Z"/><path fill="#FEEEC3" d="M1325.4 583.548C1333.21 585.828 1316.03 599.319 1313.58 601.478L1312.8 601.619L1311.9 599.809C1312.26 595.198 1321.47 587.522 1325.4 583.548Z"/><path fill="#FEEEC3" d="M390.687 579.122C391.493 579.467 392.636 580.371 393.399 580.914C392.531 584.914 379.548 595.83 375.669 599.542L374.697 599.798L373.283 598.541C374.897 595.51 387.121 583.525 390.687 579.122Z"/><path fill="#F4F4EF" d="M276.504 724.572L274.089 725.206L272.896 724.263C272.755 721.629 272.373 722.044 273.48 720.132C277.342 718.59 286.155 715.804 289.415 719.076C289.058 721.455 287.803 722.411 286.157 724.128C282.873 723.87 279.509 723.302 276.504 724.572Z"/><path fill="#FEE09B" d="M1527.06 393.965C1529.7 393.967 1532.51 394.117 1535.16 394.214L1535.49 394.915C1531.46 397.864 1528.16 395.363 1525.14 401.163C1523.22 404.854 1521.3 408.712 1519.48 412.483C1522.17 416.72 1523.59 419.749 1525.7 424.244L1526.7 426.767L1526.03 427.144C1523 423.03 1519.94 416.581 1517.52 411.866C1520.41 406.003 1523.94 399.762 1527.06 393.965Z"/><path fill="#FEF4D6" d="M809.258 263.262L811.768 264.685C812.279 270.749 808.86 275.138 805.794 280.434L803.864 280.093L802.875 278.485C803.569 274.83 807.468 267.251 809.258 263.262Z"/><path fill="#FEE6AD" d="M1402.1 711.661C1413.26 712.1 1418.4 707.655 1424.16 718.518L1423.18 719.726C1421.07 718.445 1420.21 715.998 1419.02 713.679L1403.02 713.878C1401.24 716.901 1399.42 720.696 1396.55 722.541C1398.46 717.496 1399.27 716.135 1402.1 711.661Z"/><path fill="#FEE6AD" d="M1567.14 301.162L1569.05 301.936L1569.02 303.723C1566.54 308.284 1561.38 314.82 1556.61 317.034C1555.73 316.516 1556.12 316.74 1555.54 315.571C1558.95 310.948 1563.04 304.997 1567.14 301.162Z"/><path fill="#F4F4EF" d="M1451.11 668.445C1448.47 667.683 1447.85 667.615 1446.23 665.312C1446.19 662.435 1445.79 663.462 1447.63 661.43C1450.37 661.037 1449.25 660.841 1451.86 662.41C1453.29 664.719 1453.62 665.172 1454.28 667.902L1451.11 668.445Z"/><path fill="#F4F4EF" d="M1440.8 312.241C1444.77 312.963 1443.37 312.27 1446.34 315.246C1447.25 318.816 1447.46 317.549 1446.02 320.241C1442.45 320.15 1442.67 320.001 1440.23 318.065C1439.35 314.478 1439.36 315.852 1440.8 312.241Z"/><path fill="#F4F4EF" d="M381.347 295.688C384.38 296.742 384.484 297.366 385.793 299.69C385.301 303.318 385.926 301.976 383.358 304.714C380.902 303.438 380.569 303.243 378.732 301.184C378.755 297.997 378.953 298.753 381.347 295.688Z"/><path fill="#FEF4D6" d="M435.254 661.802C437.628 662.391 437.386 661.967 438.94 663.426C437.833 665.473 436.624 666.971 435.231 668.807C434.402 669.122 433.088 669.326 432.176 669.509L431.175 668.3C431.823 664.846 432.67 664.266 435.254 661.802Z"/><path fill="#F4F4EF" d="M1455.72 667.829C1455.56 665.3 1455.53 664.947 1456.52 662.63C1458.97 661.054 1457.84 661.27 1460.78 661.88L1462.39 663.477C1462.27 667.012 1460.79 667.457 1457.26 668.131L1455.72 667.829Z"/><path fill="#F4F4EF" d="M390.644 295.591C392.845 296.054 393.09 296.157 394.697 297.723C394.645 301.042 394.272 300.508 392.096 303.75L388.911 302.739C387.93 300.115 389.24 298.914 390.644 295.591Z"/><path fill="#F4F4EF" d="M1451.14 312.086C1452.67 312.52 1453.31 313.109 1454.58 314.02C1455.11 317.048 1454.61 316.681 1452.99 320.039C1450.68 319.609 1450.3 319.579 1448.54 318.065C1448.57 315.111 1449.3 315.019 1451.14 312.086Z"/><path fill="#FEEEC3" d="M28.2259 722.231L29.0583 723.3C26.4787 726.061 23.4316 728.807 20.6589 731.411L19.5526 729.104C20.9003 725.313 24.6649 723.987 28.2259 722.231Z"/><path fill="#FEE6AD" d="M353.052 679.908L354.65 683.593L351.635 686.216L348.819 684.086L353.052 679.908Z"/><path fill="#FEEEC3" d="M1679.44 444.798C1682.49 444.776 1685.54 444.794 1688.58 444.852L1689.13 445.848C1685.89 446.704 1683.26 447.112 1679.99 446.492L1679.44 444.798Z"/><path fill="#FEF4D6" d="M1415.36 704.728L1418.44 704.355L1419.39 705.408C1418.65 705.739 1417.55 705.756 1416.68 705.844L1415.36 704.728Z"/><path fill="#FEF4D6" d="M1406.83 703.223L1408.64 703.012L1410.03 704.298C1407.92 704.52 1408.78 704.726 1406.83 703.223Z"/></svg>